<?xml version="1.0" encoding="UTF-8" standalone="no"?>
<!-- Created with Inkscape (http://www.inkscape.org/) -->

<svg
   width="210mm"
   height="297mm"
   viewBox="0 0 210 297"
   version="1.1"
   id="svg1"
   xml:space="preserve"
   inkscape:version="1.4 (e7c3feb1, 2024-10-09)"
   sodipodi:docname="favicon.svg"
   xmlns:inkscape="http://www.inkscape.org/namespaces/inkscape"
   xmlns:sodipodi="http://sodipodi.sourceforge.net/DTD/sodipodi-0.dtd"
   xmlns="http://www.w3.org/2000/svg"
   xmlns:svg="http://www.w3.org/2000/svg"><sodipodi:namedview
     id="namedview1"
     pagecolor="#ffffff"
     bordercolor="#666666"
     borderopacity="1.0"
     inkscape:showpageshadow="2"
     inkscape:pageopacity="0.0"
     inkscape:pagecheckerboard="0"
     inkscape:deskcolor="#d1d1d1"
     inkscape:document-units="mm"
     inkscape:zoom="0.64"
     inkscape:cx="383.59375"
     inkscape:cy="565.625"
     inkscape:window-width="2000"
     inkscape:window-height="1257"
     inkscape:window-x="0"
     inkscape:window-y="155"
     inkscape:window-maximized="0"
     inkscape:current-layer="layer1" /><defs
     id="defs1" /><g
     inkscape:label="Lag 1"
     inkscape:groupmode="layer"
     id="layer1"><path
       style="fill:#000000"
       d="m 132.53493,206.04506 c -3.60638,-0.7212 -7.06417,-1.91664 -10.99197,-3.80019 -5.96021,-2.85819 -9.91512,-5.67053 -14.70286,-10.45521 -3.62081,-3.6185 -5.42478,-5.90244 -7.797495,-9.87209 -0.84805,-1.41883 -1.68181,-2.57969 -1.85279,-2.57969 -0.17097,0 -1.19084,0.40635 -2.26636,0.903 -7.226717,3.33714 -14.280069,5.14415 -22.428479,5.746 -9.918641,0.7326 -22.342254,-1.66427 -33.766589,-6.51453 -5.50941,-2.33905 -12.080985,-6.20429 -16.422934,-9.65955 -1.279987,-1.0186 -2.490356,-1.852 -2.689709,-1.852 -0.199353,0 -1.159781,0.64379 -2.134283,1.43065 -5.249076,4.23834 -12.9256772,7.22951 -17.93455517,6.98815 -1.82540503,-0.088 -1.91328703,-0.12479 -3.30729203,-1.38597 -2.672506,-2.41786 -5.406689,-3.97911 -9.3695568,-5.35012 -3.477139,-1.20297 -5.140034,-1.4844 -8.995834,-1.52247 -4.069253,-0.0402 -4.599844,-0.19302 -5.437127,-1.56619 -2.694895,-4.41972 5.043499,-13.7 16.417335,-19.68852 1.3824478,-0.72788 5.0733858,-2.4134 8.2020828,-3.7456 3.12869803,-1.33221 5.851593,-2.52501 6.050879,-2.65069 0.30448,-0.19201 0.308746,-0.74078 0.02671,-3.43681 -0.399779,-3.82159 -0.214429,-10.48191 0.384751,-13.8256 0.424648,-2.36971 2.040454,-8.85107 2.522964,-10.12017 0.151311,-0.39798 0.27511,-1.83134 0.27511,-3.18526 0,-9.03559 4.1771532,-16.931304 12.3447612,-23.334224 2.675633,-2.09753 4.950917,-3.43863 8.011166,-4.72192 2.227038,-0.93389 2.470102,-1.11697 4.167542,-3.139028 4.159064,-4.954454 15.238094,-15.454387 22.836945,-21.643266 9.352148,-7.616851 20.399308,-14.730978 28.310416,-18.231283 7.118377,-3.149558 12.705805,-4.749944 16.585375,-4.750491 2.605597,-3.67e-4 3.574157,0.24026 4.515137,1.121736 0.96191,0.901073 0.75364,1.879381 -1.14112,5.360213 -3.689467,6.777858 -5.237137,10.588779 -6.562937,16.160346 -1.95181,8.202335 -1.9972,17.853297 -0.12185,25.908403 0.75693,3.25125 2.40996,7.97938 3.79259,10.84791 1.421017,2.94821 4.256657,7.276054 4.767317,7.276054 0.20875,0 1.73483,-0.775764 3.39128,-1.723914 8.101,-4.637 18.63888,-8.06568 24.78952,-8.06568 2.19395,0 3.07395,0.30239 3.4812,1.19621 0.34003,0.74629 0.17268,1.15652 -1.91359,4.69076 -2.34753,3.976844 -2.42697,8.328764 -0.23143,12.678104 0.58444,1.15777 0.77741,1.84404 0.66981,2.38205 -0.0831,0.41565 -1.02885,2.15314 -2.10159,3.86108 -1.07274,1.70794 -2.03647,3.25667 -2.14162,3.44162 -0.54903,0.9657 5.55899,2.04506 10.39318,1.8366 5.11442,-0.22054 4.92868,-0.11321 7.01799,-4.0555 10.81032,-20.397834 22.04114,-34.387324 36.01385,-44.860087 10.44697,-7.830159 21.58413,-12.656249 29.20682,-12.656249 3.57923,0 3.8599,1.233236 1.10618,4.860451 -4.43627,5.843484 -6.11534,10.045662 -10.21567,25.566631 -3.55362,13.451524 -4.86876,17.173284 -7.87109,22.274674 -3.23625,5.49885 -6.7998,9.58474 -11.1679,12.80484 -1.45521,1.07276 -2.93402,2.17155 -3.28624,2.44175 l -0.6404,0.49127 1.1917,0.81991 c 1.81324,1.24755 4.96543,4.7752 6.39577,7.15761 1.63064,2.71603 3.04134,5.99384 4.80298,11.15994 1.76045,5.1626 3.39566,9.44889 4.27522,11.20639 1.14506,2.28803 3.42563,5.55422 5.38223,7.70835 2.55157,2.80916 2.73312,3.76195 0.86631,4.54637 -2.03645,0.8557 -9.32267,-0.2394 -14.55423,-2.18746 -5.04948,-1.88026 -11.71694,-5.62286 -16.60418,-9.32029 -2.97671,-2.25202 -5.55388,-4.64662 -13.84615,-12.86522 l -8.28991,-8.21626 -0.97051,1.19063 c -0.53378,0.65484 -1.65512,1.9151 -2.49186,2.80058 -0.83675,0.88549 -1.52136,1.73141 -1.52136,1.87983 0,0.14842 1.2204,1.22492 2.71198,2.39223 5.81409,4.55006 13.04532,13.08721 15.90858,18.78157 0.7449,1.48144 0.84725,2.28332 0.43113,3.37781 -0.63959,1.68223 -4.69766,2.22352 -12.9389,1.72587 -7.97643,-0.48166 -10.38323,-0.12326 -13.10037,1.95078 -1.82977,1.39669 -2.633,1.32021 -6.37302,-0.60681 -2.57225,-1.32533 -5.86244,-3.41457 -8.91728,-5.6624 l -0.71435,-0.52564 -2.19607,2.07164 c -1.20784,1.1394 -3.23787,2.83552 -4.51117,3.76914 -2.20842,1.61928 -2.71478,2.17503 -1.98438,2.17796 1.70632,0.007 9.33344,0.87094 10.29164,1.16595 3.49329,1.07553 4.11965,1.89457 6.69399,8.75316 1.79678,4.78703 4.52963,10.33761 6.63528,13.47663 0.86936,1.29602 2.62245,3.46461 3.89576,4.81909 1.2733,1.35448 2.3151,2.67721 2.3151,2.93939 0,0.80883 -0.76291,1.61932 -1.79374,1.90561 -1.52221,0.42276 -6.00698,0.28555 -8.77783,-0.26856 z M 74.259126,183.55679 c 5.962311,-0.64747 12.195583,-2.29971 18.002524,-4.77187 4.521695,-1.92501 4.245065,-1.47968 3.202795,-5.15582 -0.84853,-2.99284 -0.86036,-3.10068 -0.37884,-3.45277 0.27337,-0.1999 0.6634,-0.36345 0.86672,-0.36345 0.20333,0 2.65883,0.59532 5.456665,1.32292 2.79784,0.7276 5.47782,1.32292 5.9555,1.32292 1.01846,0 4.45141,-1.71821 6.60902,-3.30784 1.80917,-1.33293 4.72247,-4.00663 5.06688,-4.65017 0.20844,-0.38946 -0.26373,-0.9887 -2.73132,-3.46632 -4.37584,-4.39365 -7.7102,-8.57353 -12.52053,-15.69546 -2.29535,-3.39839 -7.777865,-12.85826 -7.777865,-13.42042 0,-0.1268 0.46853,0.14597 1.04119,0.60617 1.03008,0.82779 1.05593,0.83318 2.42317,0.50519 2.183775,-0.52388 5.594665,-0.18697 8.922395,0.88131 6.88599,2.21058 9.23895,2.89098 14.32609,4.14261 2.97764,0.73261 5.52756,1.33202 5.66649,1.33202 0.76756,0 -0.70955,-0.44443 -7.39422,-2.22478 -4.06468,-1.08256 -8.99767,-2.45311 -10.9622,-3.04567 l -3.57188,-1.07738 -6.45017,-6.35109 c -3.547595,-3.49309 -6.345565,-6.34983 -6.217705,-6.3483 0.42992,0.005 3.24165,2.25836 7.970245,6.38706 2.5837,2.25592 5.0013,4.29905 5.37244,4.54029 0.37115,0.24125 4.41928,1.33822 8.99584,2.43771 15.74017,3.78148 18.61539,4.66563 24.05282,7.39647 l 2.45238,1.23166 1.22666,-1.03903 c 1.3727,-1.16273 3.63486,-4.00263 4.78572,-6.00798 1.74852,-3.04673 2.58554,-7.89958 1.8026,-10.45104 -0.45343,-1.47764 -0.57424,-1.47884 -4.70021,-0.0467 -3.95419,1.37248 -6.3685,1.73383 -11.37708,1.70281 -6.19053,-0.0383 -10.29447,-0.96471 -18.62276,-4.20369 C 105.36594,118.24668 97.689835,114.33378 78.548176,103.3212 67.322899,96.863076 60.819248,93.318246 60.527115,93.498796 c -0.113527,0.0702 0.07811,0.88349 0.425865,1.80738 1.71103,4.54579 1.934317,10.744474 0.553739,15.372374 -3.378973,11.32682 -13.33868,19.90279 -25.358944,21.83572 -2.841955,0.45701 -8.993009,0.19233 -11.442304,-0.49235 -5.495492,-1.53622 -8.990332,-3.59826 -12.699999,-7.4933 -1.745586,-1.83281 -3.7085252,-4.59255 -4.1956642,-5.89878 -0.395047,-1.05929 -1.501004,3.17065 -2.037136,7.79142 -0.380184,3.27669 -0.194207,9.89819 0.371566,13.22916 2.62454,15.45188 12.2807542,27.13191 29.5414412,35.73294 12.679546,6.31824 27.242211,9.40397 38.573447,8.17346 z M -4.4491612,146.43045 c 3.82484903,-1.47509 8.259778,-3.55374 8.043521,-3.77 -0.08765,-0.0876 -1.207564,0.28313 -2.488706,0.82395 -5.103525,2.15439 -9.605389,4.16739 -9.605389,4.29504 0,0.18757 0.486189,0.0257 4.050574,-1.34899 z M 149.01453,118.95087 c 0.14575,-0.57831 0.13755,-0.58134 -0.23265,-0.0858 -0.42496,0.5688 -0.51316,1.05285 -0.15107,0.82906 0.12796,-0.0791 0.30063,-0.41353 0.38372,-0.74322 z m 6.14386,-9.85985 c 5.9235,-9.00154 12.81261,-18.269934 16.51964,-22.225004 1.55495,-1.65898 2.51531,-3.00031 2.30135,-3.21427 -0.40931,-0.40931 -6.48885,6.42431 -10.5872,11.90042 -3.74388,5.002454 -8.40456,12.162264 -11.16158,17.146584 -2.17495,3.93202 -1.42844,3.01214 2.92779,-3.60773 z M 23.304195,96.528276 c 2.957092,-0.91336 8.491261,-4.62355 10.160075,-6.81148 0.82757,-1.085 1.106163,-2.54549 0.602018,-3.156 -0.200741,-0.2431 -0.708291,-0.65133 -1.127888,-0.90718 l -0.762903,-0.46518 1.897723,-0.95568 c 2.513045,-1.26555 2.281028,-1.58936 -0.96794,-1.35087 -3.060594,0.22467 -6.260181,1.27665 -8.960081,2.94598 -2.464947,1.52405 -3.80321,2.85342 -4.945492,4.91263 -1.737483,3.13219 -1.842556,4.89456 -0.346214,5.807 1.055099,0.64338 2.323189,0.6379 4.450702,-0.0192 z M 175.76145,82.450206 c 0.22319,-0.31864 0.34973,-0.63541 0.28121,-0.70393 -0.15805,-0.15805 -1.18616,0.76046 -1.18616,1.05971 0,0.4203 0.4987,0.22424 0.90495,-0.35578 z"
       id="path1" /></g></svg>
